<?xml version="1.0" encoding="UTF-8" standalone="no"?><!DOCTYPE svg PUBLIC "-//W3C//DTD SVG 1.1//EN" "http://www.w3.org/Graphics/SVG/1.1/DTD/svg11.dtd"><svg width="100%" height="100%" viewBox="0 0 91 91" version="1.1" xmlns="http://www.w3.org/2000/svg" xmlns:xlink="http://www.w3.org/1999/xlink" xml:space="preserve" xmlns:serif="http://www.serif.com/" style="fill-rule:evenodd;clip-rule:evenodd;stroke-linejoin:round;stroke-miterlimit:2;"><g><path d="M63.877,45.676c-0.722,-0.017 -0.711,-0.012 -10.01,-0.012c-1,0 -1.5,0.399 -1.487,-0.613c0.061,-4.737 -0.235,-8.464 0.373,-10.458c2.167,-7.109 12.42,-3.414 12.62,-4.769c0.043,-0.293 -0.005,-9.598 -0.009,-10.433c-0.002,-0.421 -0.139,-0.512 -0.601,-0.578c-8.349,-1.191 -20.387,-2.492 -25.039,8.75c-2.602,6.289 -0.849,17.407 -1.484,18.022c-0.258,0.25 -11.027,-0.059 -11.246,0.171c-0.133,0.14 -0.128,12.8 0,12.924c0.258,0.25 11.027,-0.059 11.246,0.171c0.118,0.124 0.157,31.351 -0.021,31.479c-0.502,0.359 -22.576,-3.218 -32.993,-24.223c-13.348,-26.913 2.387,-56.634 27.228,-63.838c35.835,-10.392 65.839,23.395 56.015,56.232c-8.327,27.831 -35.469,32.239 -35.988,31.828c-0.276,-0.219 -0.114,-28.469 -0.1,-30.945c0.003,-0.543 0.071,-0.624 0.609,-0.625c9.615,-0.021 9.819,0.127 9.926,-0.276c0.02,-0.074 0.932,-6.001 1.012,-6.523c0.828,-5.381 0.815,-5.374 0.888,-5.841c0.102,-0.65 -0.277,-0.383 -0.937,-0.443Z" style="fill:#054346;"/></g></svg>