<?xml version="1.0" encoding="UTF-8" standalone="no"?><!DOCTYPE svg PUBLIC "-//W3C//DTD SVG 1.1//EN" "http://www.w3.org/Graphics/SVG/1.1/DTD/svg11.dtd"><svg width="100%" height="100%" viewBox="0 0 91 91" version="1.1" xmlns="http://www.w3.org/2000/svg" xmlns:xlink="http://www.w3.org/1999/xlink" xml:space="preserve" xmlns:serif="http://www.serif.com/" style="fill-rule:evenodd;clip-rule:evenodd;stroke-linejoin:round;stroke-miterlimit:2;"><g><path d="M0.355,49.836c0.03,-3.036 0.003,-35.849 0.012,-37.085c0.061,-7.822 6.248,-12.423 12.384,-12.396c6.842,0.03 63.457,0.002 65.381,0.013c7.357,0.042 12.323,6.177 12.219,12.384c-0.027,1.637 -0.004,62.812 -0.012,65.03c-0.029,8.521 -6.821,12.623 -12.385,12.572c-3.182,-0.029 -63.576,-0.002 -65.381,-0.013c-4.673,-0.028 -10.44,-2.846 -11.993,-9.914c-0.257,-1.169 -0.226,-1.179 -0.226,-30.59Zm25.227,23.633c2.976,0 5.283,0.403 5.436,-1.84c0.051,-0.753 0.018,-30.722 0.014,-33.393c-0.003,-2.865 -1.728,-2.443 -4.923,-2.443c-5.645,0 -6.941,-0.424 -6.941,2.619c-0,2.615 -0.002,32.485 0,32.691c0.029,2.784 1.432,2.367 6.414,2.367Zm-0.528,-56.227c-9.52,0.42 -10.218,13.457 -1.233,15.213c7.025,1.372 12.395,-7.919 6.299,-13.341c-1.945,-1.73 -4.634,-1.852 -5.066,-1.871Zm38.666,56.227c7.996,0 8.007,0.021 8.421,-0.123c1.147,-0.4 1.147,-2.042 1.147,-2.244c0,-21.072 0.312,-24.612 -2.249,-29.671c-3.5,-6.915 -11.794,-6.533 -15.24,-5.89c-6.918,1.291 -7.622,6.801 -7.523,3.924c0.111,-3.246 -0.41,-3.656 -2.835,-3.657c-8.015,-0.003 -8.631,-0.239 -8.999,1.364c-0.221,0.962 -0.06,31.377 -0.046,34.106c0.013,2.534 1.729,2.191 3.421,2.191c7.272,0 7.579,0.178 8.235,-0.974c0.429,-0.753 0.069,-17.846 0.208,-19.144c1.089,-10.201 8.748,-8.328 10.682,-6.469c2.52,2.422 2.176,4.699 2.176,21.232c0,4.15 -0.415,5.38 2.602,5.355Z" style="fill:#054346;"/></g></svg>