<?xml version="1.0" encoding="UTF-8" standalone="no"?><!DOCTYPE svg PUBLIC "-//W3C//DTD SVG 1.1//EN" "http://www.w3.org/Graphics/SVG/1.1/DTD/svg11.dtd"><svg width="100%" height="100%" viewBox="0 0 91 91" version="1.1" xmlns="http://www.w3.org/2000/svg" xmlns:xlink="http://www.w3.org/1999/xlink" xml:space="preserve" xmlns:serif="http://www.serif.com/" style="fill-rule:evenodd;clip-rule:evenodd;stroke-linejoin:round;stroke-miterlimit:2;"><g><path d="M74.151,90.689c-6.26,-0.06 -10.054,0.065 -10.368,-0.074c-0.297,-0.132 -21.833,-30.827 -23.719,-33.516c-0.821,-1.17 -0.945,-1.77 -1.581,-1.064c-7.12,7.911 -7.024,7.975 -7.645,8.66c-9.696,10.678 -9.376,10.931 -19.072,21.595c-3.302,3.632 -3.633,4.41 -4.294,4.398c-2.275,-0.04 -6.343,0.015 -7.316,-0.018c-0.436,-0.014 0.122,-0.452 4.604,-5.553c27.741,-31.571 27.853,-31.475 30.248,-34.235c0.492,-0.567 0.196,-0.674 -0.936,-2.281c-33.968,-48.217 -34.089,-48.204 -34.049,-48.444c0.041,-0.247 24.239,-0.094 26.347,-0.081c0.841,0.005 0.74,0.281 2.154,2.224c0.804,1.105 13.002,18.422 14.131,20.025c7.499,10.647 7.63,10.93 7.87,10.896c0.158,-0.022 5.761,-6.468 6.074,-6.812c1.494,-1.644 22.983,-26.061 23.204,-26.227c0.304,-0.228 6.118,-0.053 7.436,-0.11c1.006,-0.044 0.147,0.519 -1.534,2.5c-0.507,0.598 -1.158,1.313 -1.26,1.425c-0.675,0.742 -30.2,34.184 -30.239,34.236c-0.331,0.433 0.045,0.492 9.687,14.191c26.698,37.931 26.841,37.908 26.797,38.171c-0.017,0.105 -0.081,0.093 -16.536,0.093Zm-19.409,-40.644c-0.363,-0.497 -21.94,-30.583 -23.772,-33.114c-7.756,-10.717 -7.664,-10.964 -8.234,-10.979c-5.74,-0.154 -5.726,0.006 -11.453,-0.01c-0.038,0 -0.559,-0.001 -0.286,0.371c5.562,7.587 18.92,26.299 20.556,28.591c2.838,3.976 30.385,42.565 35.591,49.619c0.514,0.696 0.668,0.535 4.1,0.535c8.112,0 8.79,0.306 8.46,-0.27c-0.008,-0.015 -2.822,-3.903 -3.067,-4.242c-1.761,-2.434 -18.428,-25.468 -21.894,-30.501Z" style="fill:#054346;"/></g></svg>