<?xml version="1.0" encoding="UTF-8"?>
<svg xmlns="http://www.w3.org/2000/svg" version="1.1" viewBox="0 0 1000 1000">
  <defs>
    <style>
      .cls-1 {
        fill: #5ce1e6;
      }

      .cls-2 {
        fill: #ef5581;
      }

      .cls-3 {
        display: none;
      }
    </style>
  </defs>
  <!-- Generator: Adobe Illustrator 28.7.1, SVG Export Plug-In . SVG Version: 1.2.0 Build 142)  -->
  <g>
    <g id="Layer_1">
      <g id="Design_1" class="cls-3">
        <path class="cls-1" d="M-496.66,486.75c-39.33-36.67-78.67-73.33-118-110-56.67-8.67-113.33-17.33-170-26,4,33.78,8,67.56,12,101.33,25.33,11.11,50.67,22.22,76,33.33,8.67,71.33,17.33,142.67,26,214,11.11,10.89,22.22,21.78,33.33,32.67,9.33,24.89,18.67,49.78,28,74.67,37.56-77.11,75.11-154.22,112.67-231.33v-88.67Z"/>
        <path class="cls-2" d="M-474.44,486.75c39.33-36.67,78.67-73.33,118-110,56.67-8.67,113.33-17.33,170-26-4,33.78-8,67.56-12,101.33-25.33,11.11-50.67,22.22-76,33.33-8.67,71.33-17.33,142.67-26,214-11.11,10.89-22.22,21.78-33.33,32.67-9.33,24.89-18.67,49.78-28,74.67-37.56-77.11-75.11-154.22-112.67-231.33v-88.67Z"/>
        <path class="cls-2" d="M-485.55,442.75v30c-34.81-32-69.63-64-104.44-96h32.64c23.93,22,47.87,44,71.8,66Z"/>
        <path class="cls-1" d="M-381.11,376.75c-34.81,32-69.63,64-104.44,96v-30c23.93-22,47.87-44,71.8-66h32.64Z"/>
      </g>
      <g id="Desig_2">
        <path class="cls-1" d="M475.98,346.27c-48.35-45.07-96.69-90.14-145.04-135.2-3.89-3.62-8.77-5.99-14.03-6.79-62.42-9.55-124.85-19.09-187.27-28.64-17.26-2.64-32.29,11.89-30.24,29.23,3.45,29.13,6.9,58.26,10.35,87.39,1.1,9.31,7.05,17.33,15.63,21.09,25.01,10.97,50.01,21.93,75.02,32.9,8.55,3.75,14.49,11.74,15.62,21.02,10.73,88.31,21.46,176.62,32.19,264.93.72,5.96,3.45,11.49,7.74,15.69,11.01,10.79,22.03,21.59,33.04,32.38,3.51,3.44,5.99,7.79,7.17,12.57l27.47,111.72c6.33,25.76,42.43,27.17,50.76,1.99l108.68-328.61c.89-2.68,1.34-5.48,1.34-8.3v-104.03c0-7.33-3.05-14.33-8.41-19.33Z"/>
        <path class="cls-2" d="M499.4,294.67v40.53c-36.21-33.28-72.42-66.57-108.63-99.85-11.53-10.6-4.03-29.84,11.63-29.84h0c32.33,29.72,64.67,59.44,97,89.16Z"/>
        <path class="cls-1" d="M608.03,235.35c-36.21,33.28-72.42,66.57-108.63,99.85v-40.53c32.33-29.72,64.67-59.44,97-89.16h0c15.66,0,23.16,19.24,11.63,29.84Z"/>
        <path class="cls-2" d="M524.02,346.27c48.35-45.07,96.69-90.14,145.04-135.2,3.89-3.62,8.77-5.99,14.03-6.79,62.42-9.55,124.85-19.09,187.27-28.64,17.26-2.64,32.29,11.89,30.24,29.23-3.45,29.13-6.9,58.26-10.35,87.39-1.1,9.31-7.05,17.33-15.63,21.09-25.01,10.97-50.01,21.93-75.02,32.9-8.55,3.75-14.49,11.74-15.62,21.02-10.73,88.31-21.46,176.62-32.19,264.93-.72,5.96-3.45,11.49-7.74,15.69-11.01,10.79-22.03,21.59-33.04,32.38-3.51,3.44-5.99,7.79-7.17,12.57l-27.47,111.72c-6.33,25.76-42.43,27.17-50.76,1.99l-108.68-328.61c-.89-2.68-1.34-5.48-1.34-8.3v-104.03c0-7.33,3.05-14.33,8.41-19.33Z"/>
      </g>
    </g>
  </g>
</svg>