<svg width="302" height="62" viewBox="0 0 302 62" fill="none" xmlns="http://www.w3.org/2000/svg">
<path d="M21.183 16.5848C21.2837 15.6814 21.566 14.4163 22.6932 13.5734C23.9013 12.67 27.2239 12.67 28.13 14.778C28.6478 15.9825 28.7341 18.3916 27.5259 19.5962C25.804 21.313 24.5055 21.1019 24.5055 21.1019V23.2099M22.3912 26.8236L26.6199 24.1133M27.224 26.8236C19.4714 31.14 3.84554 39.8329 3.36227 40.0738C2.75818 40.3749 -1.47048 43.9886 2.75818 47H45.3467C47.5617 46.4981 51.0252 44.5306 47.159 40.6761L26.0157 29.5339" stroke="#054346" stroke-width="1.8" stroke-linecap="round"/>
<path d="M61.3084 47V19.804H56.4204V16.268H71.2924V19.804H66.3004V47H61.3084ZM76.7349 47V16.268H87.3429C89.2843 16.268 90.7749 16.7013 91.8149 17.568C92.8896 18.4347 93.4269 19.7173 93.4269 21.416V26.304C93.4269 28.0027 92.9589 29.3893 92.0229 30.464C91.0869 31.504 89.7003 32.076 87.8629 32.18C89.0416 32.284 89.8736 32.6653 90.3589 33.324C90.8789 33.9827 91.3469 35.0053 91.7629 36.392L94.7269 47H89.2149L86.7709 36.756C86.5283 35.8893 86.2509 35.1267 85.9389 34.468C85.6269 33.8093 85.1243 33.48 84.4309 33.48H81.8829V47H76.7349ZM81.8829 29.996H85.2109C86.4243 29.996 87.2736 29.684 87.7589 29.06C88.2789 28.436 88.5389 27.4827 88.5389 26.2V22.3C88.5389 21.156 88.2963 20.324 87.8109 19.804C87.3603 19.284 86.6496 19.024 85.6789 19.024H81.8829V29.996ZM100.759 47V16.268H114.591V19.804H105.959V29.112H113.083V33.012H105.959V43.568H114.591V47H100.759ZM120.618 47V16.268H124.934L132.578 36.964V16.268H136.998V47H132.63L125.038 27.396V47H120.618ZM144.794 47V16.268H154.986C156.373 16.268 157.534 16.476 158.47 16.892C159.406 17.308 160.117 17.9493 160.602 18.816C161.122 19.6827 161.382 20.8093 161.382 22.196V40.396C161.382 42.0947 161.087 43.4293 160.498 44.4C159.909 45.3707 159.077 46.0467 158.002 46.428C156.962 46.8093 155.731 47 154.31 47H144.794ZM149.942 44.348H153.53C154.397 44.348 155.09 44.1053 155.61 43.62C156.13 43.1 156.39 42.1467 156.39 40.76V22.768C156.39 21.3813 156.13 20.428 155.61 19.908C155.09 19.388 154.397 19.128 153.53 19.128H149.942V44.348ZM175.689 47.364C173.99 47.364 172.517 47.104 171.269 46.584C170.021 46.064 169.068 45.1453 168.409 43.828C167.785 42.5107 167.473 40.656 167.473 38.264V36.496C168.305 36.496 169.154 36.496 170.021 36.496C170.888 36.496 171.737 36.496 172.569 36.496V38.68C172.569 40.136 172.708 41.2627 172.985 42.06C173.262 42.8573 173.644 43.412 174.129 43.724C174.614 44.0013 175.169 44.14 175.793 44.14C176.798 44.14 177.596 43.8107 178.185 43.152C178.809 42.4587 179.121 41.176 179.121 39.304C179.121 37.9173 178.913 36.8773 178.497 36.184C178.081 35.4907 177.422 34.936 176.521 34.52C175.654 34.0693 174.528 33.5667 173.141 33.012C171.997 32.492 171.009 31.8853 170.177 31.192C169.345 30.4987 168.721 29.6147 168.305 28.54C167.889 27.4653 167.681 26.1307 167.681 24.536C167.681 22.5947 167.924 21.0173 168.409 19.804C168.929 18.556 169.796 17.6547 171.009 17.1C172.222 16.5107 173.852 16.216 175.897 16.216C178.532 16.216 180.542 16.8227 181.929 18.036C183.316 19.2147 184.009 20.948 184.009 23.236V26.824C183.212 26.824 182.397 26.824 181.565 26.824C180.768 26.824 179.953 26.824 179.121 26.824V24.692C179.121 23.0973 178.861 21.9533 178.341 21.26C177.856 20.532 177.058 20.168 175.949 20.168C174.805 20.168 173.973 20.5147 173.453 21.208C172.968 21.8667 172.725 22.924 172.725 24.38C172.725 25.628 172.968 26.5987 173.453 27.292C173.938 27.9507 174.562 28.4707 175.325 28.852C176.122 29.2333 176.937 29.58 177.769 29.892C179.329 30.4813 180.594 31.088 181.565 31.712C182.536 32.336 183.246 33.168 183.697 34.208C184.148 35.248 184.373 36.7213 184.373 38.628C184.373 40.812 184.009 42.5453 183.281 43.828C182.588 45.076 181.582 45.9773 180.265 46.532C178.982 47.0867 177.457 47.364 175.689 47.364ZM190.81 47V16.268H204.642V19.804H196.01V29.112H203.134V33.012H196.01V43.568H204.642V47H190.81ZM213.477 47V19.804H208.589V16.268H223.461V19.804H218.469V47H213.477ZM231.712 47V19.804H226.824V16.268H241.696V19.804H236.704V47H231.712ZM247.139 47V16.268H252.079V47H247.139ZM259.635 47V16.268H263.951L271.595 36.964V16.268H276.015V47H271.647L264.055 27.396V47H259.635ZM289.953 47.572C288.774 47.572 287.665 47.3813 286.625 47C285.585 46.6533 284.735 45.9427 284.077 44.868C283.453 43.7587 283.141 42.112 283.141 39.928V22.768C283.141 20.896 283.487 19.4747 284.181 18.504C284.874 17.4987 285.845 16.8227 287.093 16.476C288.341 16.0947 289.779 15.904 291.409 15.904C293.038 15.904 294.477 16.0947 295.725 16.476C296.973 16.8573 297.943 17.5507 298.637 18.556C299.365 19.5267 299.729 20.9307 299.729 22.768V26.928H294.893V22.56C294.893 21.52 294.737 20.74 294.425 20.22C294.147 19.7 293.749 19.3533 293.229 19.18C292.743 19.0067 292.154 18.92 291.461 18.92C290.837 18.92 290.265 19.0067 289.745 19.18C289.225 19.3533 288.809 19.7 288.497 20.22C288.219 20.74 288.081 21.52 288.081 22.56V41.02C288.081 42.06 288.219 42.84 288.497 43.36C288.809 43.88 289.225 44.2267 289.745 44.4C290.265 44.5733 290.837 44.66 291.461 44.66C292.466 44.66 293.281 44.3653 293.905 43.776C294.563 43.152 294.893 42.2333 294.893 41.02V34.78H291.825V31.92H299.729V47H295.985L295.725 44.4C295.655 44.5387 295.569 44.6947 295.465 44.868C295.361 45.0067 295.274 45.128 295.205 45.232C294.789 45.856 294.165 46.4107 293.333 46.896C292.535 47.3467 291.409 47.572 289.953 47.572Z" fill="#054346"/>
</svg>
