<svg width="343" height="76" viewBox="0 0 343 76" fill="none" xmlns="http://www.w3.org/2000/svg">
<path d="M34.9757 18.9521C35.1424 17.4521 35.6097 15.3516 37.4756 13.9521C39.4755 12.4522 44.9756 12.4521 46.4756 15.952C47.3327 17.952 47.4756 21.952 45.4756 23.952C42.6251 26.8025 40.4757 26.4521 40.4757 26.4521V29.9521M36.9757 35.9521L43.9757 31.4521M44.9757 35.9521C32.1424 43.1188 6.27572 57.5521 5.47572 57.9521C4.47572 58.4521 -2.52428 64.4521 4.47572 69.4521H74.9756C78.6423 68.6188 84.3756 65.3521 77.9756 58.9521L42.9756 40.4521" stroke="#054346" stroke-width="2.8" stroke-linecap="round"/>
<path d="M99.6524 47V20.532H94.8684V16.268H110.468V20.532H105.684V47H99.6524ZM115.479 47V16.268H126.711C128.756 16.268 130.299 16.736 131.339 17.672C132.379 18.5733 132.899 19.8387 132.899 21.468V26.252C132.899 27.8813 132.466 29.2507 131.599 30.36C130.732 31.4693 129.38 32.1107 127.543 32.284C128.722 32.4573 129.554 32.856 130.039 33.48C130.559 34.0693 131.01 35.04 131.391 36.392L134.303 47H127.595L125.359 36.808C125.151 35.976 124.908 35.2827 124.631 34.728C124.388 34.1387 124.024 33.844 123.539 33.844H121.771V47H115.479ZM121.771 29.632H124.267C125.238 29.632 125.931 29.372 126.347 28.852C126.763 28.2973 126.971 27.4307 126.971 26.252V22.56C126.971 21.4507 126.78 20.6707 126.399 20.22C126.018 19.7693 125.428 19.544 124.631 19.544H121.771V29.632ZM139.655 47V16.268H153.799V20.532H145.947V28.748H152.603V33.48H145.947V42.84H153.799V47H139.655ZM159.362 47V16.268H164.614L171.01 34.884V16.268H176.314V47H171.062L164.666 29.632V47H159.362ZM183.335 47V16.268H194.099C195.555 16.268 196.751 16.476 197.687 16.892C198.658 17.308 199.368 17.9493 199.819 18.816C200.304 19.648 200.547 20.7053 200.547 21.988V40.396C200.547 42.0947 200.252 43.4293 199.663 44.4C199.074 45.3707 198.224 46.0467 197.115 46.428C196.04 46.8093 194.758 47 193.267 47H183.335ZM189.627 43.88H192.279C192.972 43.88 193.51 43.672 193.891 43.256C194.307 42.84 194.515 42.06 194.515 40.916V22.664C194.515 21.52 194.307 20.74 193.891 20.324C193.51 19.908 192.972 19.7 192.279 19.7H189.627V43.88ZM214.702 47.364C212.864 47.364 211.287 47.104 209.97 46.584C208.687 46.064 207.699 45.1453 207.006 43.828C206.312 42.5107 205.966 40.656 205.966 38.264V36.444C207.04 36.444 208.098 36.444 209.138 36.444C210.178 36.444 211.218 36.444 212.258 36.444V38.784C212.258 40.0667 212.362 41.0547 212.57 41.748C212.778 42.4067 213.072 42.8747 213.454 43.152C213.835 43.3947 214.286 43.516 214.806 43.516C215.603 43.516 216.227 43.2387 216.678 42.684C217.163 42.0947 217.406 40.968 217.406 39.304C217.406 38.0213 217.198 37.068 216.782 36.444C216.4 35.7853 215.776 35.2653 214.91 34.884C214.043 34.468 212.934 33.9653 211.582 33.376C210.368 32.856 209.363 32.232 208.566 31.504C207.768 30.776 207.179 29.8573 206.798 28.748C206.416 27.6387 206.226 26.2867 206.226 24.692C206.226 22.6813 206.486 21.052 207.006 19.804C207.56 18.556 208.462 17.6547 209.71 17.1C210.992 16.5107 212.708 16.216 214.858 16.216C217.631 16.216 219.746 16.8227 221.202 18.036C222.692 19.2147 223.438 21 223.438 23.392V27.084C222.432 27.084 221.427 27.084 220.422 27.084C219.451 27.084 218.446 27.084 217.406 27.084V25.212C217.406 23.652 217.215 22.56 216.834 21.936C216.487 21.312 215.846 21 214.91 21C214.008 21 213.367 21.2773 212.986 21.832C212.604 22.3867 212.414 23.288 212.414 24.536C212.414 25.68 212.639 26.5813 213.09 27.24C213.575 27.864 214.182 28.3493 214.91 28.696C215.638 29.008 216.418 29.32 217.25 29.632C218.775 30.2213 220.023 30.828 220.994 31.452C221.964 32.0413 222.675 32.8733 223.126 33.948C223.576 34.988 223.802 36.496 223.802 38.472C223.802 40.6907 223.42 42.4587 222.658 43.776C221.93 45.0587 220.872 45.9773 219.486 46.532C218.134 47.0867 216.539 47.364 214.702 47.364ZM229.554 47V16.268H243.698V20.532H235.846V28.748H242.502V33.48H235.846V42.84H243.698V47H229.554ZM252.329 47V20.532H247.545V16.268H263.145V20.532H258.361V47H252.329ZM271.224 47V20.532H266.44V16.268H282.04V20.532H277.256V47H271.224ZM287.051 47V16.268H293.083V47H287.051ZM299.801 47V16.268H305.053L311.449 34.884V16.268H316.753V47H311.501L305.105 29.632V47H299.801ZM329.866 47.572C328.687 47.572 327.578 47.3813 326.538 47C325.533 46.6187 324.701 45.8733 324.042 44.764C323.383 43.62 323.054 41.9213 323.054 39.668V22.82C323.054 21.0173 323.401 19.6133 324.094 18.608C324.822 17.6027 325.827 16.9093 327.11 16.528C328.393 16.112 329.883 15.904 331.582 15.904C333.281 15.904 334.771 16.112 336.054 16.528C337.371 16.9093 338.394 17.6027 339.122 18.608C339.885 19.6133 340.266 21.0173 340.266 22.82V27.136H334.39V22.508C334.39 21.676 334.269 21.052 334.026 20.636C333.818 20.1853 333.523 19.8907 333.142 19.752C332.761 19.6133 332.293 19.544 331.738 19.544C331.218 19.544 330.75 19.6133 330.334 19.752C329.953 19.8907 329.641 20.1853 329.398 20.636C329.19 21.052 329.086 21.676 329.086 22.508V41.124C329.086 41.9213 329.19 42.5453 329.398 42.996C329.641 43.412 329.953 43.7067 330.334 43.88C330.75 44.0187 331.218 44.088 331.738 44.088C332.535 44.088 333.177 43.8453 333.662 43.36C334.147 42.8747 334.39 42.1293 334.39 41.124V34.988H331.894V31.556H340.266V47H335.742L335.43 44.608C335.361 44.712 335.291 44.816 335.222 44.92C335.153 45.024 335.101 45.1107 335.066 45.18C334.719 45.7693 334.13 46.324 333.298 46.844C332.501 47.3293 331.357 47.572 329.866 47.572Z" fill="#054346"/>
<path d="M110.443 67.3652L113.177 56.168H115.11C115.04 56.3496 114.97 56.54 114.899 56.7393C114.829 56.9326 114.753 57.1553 114.671 57.4072C114.595 57.6533 114.51 57.9375 114.416 58.2598C114.322 58.5762 114.217 58.9482 114.1 59.376L111.419 69H109.441L106.427 58.6641L103.421 69H101.443L98.7627 59.376C98.6455 58.9541 98.54 58.585 98.4463 58.2686C98.3525 57.9463 98.2646 57.6592 98.1826 57.4072C98.1064 57.1494 98.0332 56.9238 97.9629 56.7305C97.8926 56.5312 97.8223 56.3438 97.752 56.168H99.6855L102.463 67.3652L105.618 56.168H107.244L110.443 67.3652ZM126.419 61.5732V62.9795H121.41V67.5498H123.73C124.603 67.5498 125.335 67.5439 125.927 67.5322C126.519 67.5205 126.991 67.4824 127.342 67.418V69H119.608C119.672 68.6484 119.71 68.1416 119.722 67.4795C119.734 66.8115 119.74 66.0439 119.74 65.1768V59.9912C119.74 59.124 119.734 58.3594 119.722 57.6973C119.71 57.0293 119.672 56.5195 119.608 56.168H127.079V57.6182H121.41V61.5732H126.419ZM141.259 58.875V69H139.677C139.742 68.6484 139.78 68.1416 139.791 67.4795C139.803 66.8115 139.809 66.0439 139.809 65.1768V59.9912C139.809 59.124 139.803 58.3594 139.791 57.6973C139.78 57.0293 139.742 56.5195 139.677 56.168H141.259L148.247 66.3369V56.168H149.829C149.799 56.3438 149.776 56.5605 149.758 56.8184C149.741 57.0762 149.726 57.3691 149.714 57.6973C149.708 58.0195 149.703 58.374 149.697 58.7607C149.697 59.1475 149.697 59.5576 149.697 59.9912V69H148.247L141.259 58.875ZM162.192 61.5732V62.9795H157.183V67.5498H159.503C160.376 67.5498 161.108 67.5439 161.7 67.5322C162.292 67.5205 162.764 67.4824 163.115 67.418V69H155.381C155.445 68.6484 155.483 68.1416 155.495 67.4795C155.507 66.8115 155.513 66.0439 155.513 65.1768V59.9912C155.513 59.124 155.507 58.3594 155.495 57.6973C155.483 57.0293 155.445 56.5195 155.381 56.168H162.851V57.6182H157.183V61.5732H162.192ZM178.204 56.168C178.121 56.3496 178.039 56.54 177.957 56.7393C177.875 56.9326 177.785 57.1553 177.685 57.4072C177.591 57.6533 177.486 57.9375 177.369 58.2598C177.251 58.5762 177.12 58.9482 176.973 59.376L173.589 69H171.612L168.184 59.376C168.032 58.9541 167.897 58.585 167.78 58.2686C167.668 57.9463 167.566 57.6592 167.472 57.4072C167.378 57.1553 167.293 56.9326 167.217 56.7393C167.141 56.54 167.068 56.3496 166.997 56.168H168.887L172.596 67.2861L176.314 56.168H178.204ZM189.433 61.5732V62.9795H184.424V67.5498H186.744C187.617 67.5498 188.349 67.5439 188.941 67.5322C189.533 67.5205 190.005 67.4824 190.356 67.418V69H182.622C182.686 68.6484 182.724 68.1416 182.736 67.4795C182.748 66.8115 182.754 66.0439 182.754 65.1768V59.9912C182.754 59.124 182.748 58.3594 182.736 57.6973C182.724 57.0293 182.686 56.5195 182.622 56.168H190.093V57.6182H184.424V61.5732H189.433ZM197.139 65.1768C197.139 65.6104 197.139 66.0205 197.139 66.4072C197.145 66.7939 197.151 67.1514 197.157 67.4795C197.168 67.8076 197.183 68.1006 197.201 68.3584C197.218 68.6162 197.242 68.8301 197.271 69H195.337C195.402 68.6484 195.44 68.1416 195.452 67.4795C195.463 66.8115 195.469 66.0439 195.469 65.1768V58.9541C195.469 58.5439 195.463 58.1631 195.452 57.8115C195.446 57.4541 195.434 57.1348 195.416 56.8535C195.399 56.5723 195.372 56.3438 195.337 56.168C195.642 56.1562 195.979 56.1416 196.348 56.124C196.664 56.1123 197.039 56.1035 197.473 56.0977C197.907 56.0859 198.381 56.0801 198.897 56.0801C199.582 56.0801 200.206 56.1504 200.769 56.291C201.337 56.4258 201.824 56.6396 202.228 56.9326C202.632 57.2197 202.946 57.5918 203.168 58.0488C203.397 58.5059 203.511 59.0508 203.511 59.6836C203.511 60.2168 203.426 60.6885 203.256 61.0986C203.092 61.5088 202.872 61.8633 202.597 62.1621C202.327 62.4551 202.02 62.6982 201.674 62.8916C201.328 63.085 200.977 63.2314 200.619 63.3311C200.795 63.5713 201.009 63.8672 201.261 64.2188C201.519 64.5645 201.791 64.9336 202.078 65.3262C202.371 65.7129 202.664 66.1084 202.957 66.5127C203.256 66.9111 203.535 67.2803 203.792 67.6201C204.05 67.96 204.276 68.2529 204.469 68.499C204.662 68.7451 204.797 68.9121 204.873 69H202.632L198.923 63.5068H197.139V65.1768ZM197.139 62.1445H198.809C199.805 62.1445 200.558 61.9395 201.068 61.5293C201.583 61.1191 201.841 60.5479 201.841 59.8154C201.841 59.4404 201.783 59.1094 201.665 58.8223C201.554 58.5293 201.375 58.2861 201.129 58.0928C200.889 57.8936 200.576 57.7441 200.189 57.6445C199.808 57.5391 199.348 57.4863 198.809 57.4863C198.498 57.4863 198.2 57.4922 197.912 57.5039C197.631 57.5098 197.373 57.5186 197.139 57.5303V62.1445ZM223.721 58.4531C223.405 58.2773 223.112 58.1309 222.842 58.0137C222.578 57.8906 222.321 57.791 222.069 57.7148C221.817 57.6328 221.565 57.5742 221.313 57.5391C221.061 57.5039 220.794 57.4863 220.513 57.4863C220.161 57.4863 219.839 57.5391 219.546 57.6445C219.259 57.75 219.01 57.8906 218.799 58.0664C218.588 58.2422 218.424 58.4443 218.307 58.6729C218.196 58.9014 218.14 59.1357 218.14 59.376C218.14 59.6162 218.172 59.8359 218.237 60.0352C218.307 60.2285 218.445 60.4131 218.65 60.5889C218.855 60.7588 219.148 60.9287 219.529 61.0986C219.909 61.2627 220.413 61.4355 221.04 61.6172C221.62 61.7871 222.133 61.9863 222.578 62.2148C223.03 62.4375 223.408 62.6953 223.712 62.9883C224.017 63.2812 224.248 63.6152 224.407 63.9902C224.565 64.3652 224.644 64.79 224.644 65.2646C224.644 65.8564 224.527 66.3955 224.292 66.8818C224.064 67.3623 223.747 67.7783 223.343 68.1299C222.945 68.4756 222.479 68.7451 221.946 68.9385C221.412 69.126 220.847 69.2197 220.249 69.2197C219.827 69.2197 219.414 69.1904 219.01 69.1318C218.612 69.0732 218.234 68.9912 217.876 68.8857C217.525 68.7803 217.2 68.6572 216.901 68.5166C216.602 68.3701 216.341 68.209 216.118 68.0332L216.514 66.2314C217.1 66.7412 217.703 67.1104 218.325 67.3389C218.951 67.5674 219.593 67.6816 220.249 67.6816C220.601 67.6816 220.941 67.6318 221.269 67.5322C221.597 67.4326 221.887 67.2891 222.139 67.1016C222.391 66.9082 222.593 66.6738 222.745 66.3984C222.898 66.1172 222.974 65.7979 222.974 65.4404C222.974 65.2119 222.936 64.9951 222.86 64.79C222.789 64.5791 222.643 64.374 222.42 64.1748C222.198 63.9756 221.878 63.7793 221.462 63.5859C221.046 63.3867 220.495 63.1846 219.81 62.9795C219.124 62.7744 218.565 62.5488 218.131 62.3027C217.698 62.0566 217.358 61.79 217.112 61.5029C216.866 61.21 216.696 60.8994 216.602 60.5713C216.514 60.2373 216.47 59.8828 216.47 59.5078C216.47 59.1328 216.546 58.7373 216.699 58.3213C216.857 57.9053 217.103 57.5215 217.437 57.1699C217.771 56.8184 218.199 56.5283 218.72 56.2998C219.242 56.0654 219.868 55.9482 220.601 55.9482C220.941 55.9482 221.257 55.9629 221.55 55.9922C221.849 56.0215 222.136 56.0684 222.411 56.1328C222.693 56.1973 222.968 56.2793 223.238 56.3789C223.507 56.4785 223.785 56.5986 224.073 56.7393L223.721 58.4531ZM236.357 61.5732V62.9795H231.347V67.5498H233.668C234.541 67.5498 235.273 67.5439 235.865 67.5322C236.457 67.5205 236.929 67.4824 237.28 67.418V69H229.546C229.61 68.6484 229.648 68.1416 229.66 67.4795C229.672 66.8115 229.678 66.0439 229.678 65.1768V59.9912C229.678 59.124 229.672 58.3594 229.66 57.6973C229.648 57.0293 229.61 56.5195 229.546 56.168H237.016V57.6182H231.347V61.5732H236.357ZM251.402 56.168V57.7939C251.05 57.7178 250.701 57.6709 250.356 57.6533C250.016 57.6299 249.647 57.6182 249.248 57.6182H247.139V65.1768C247.139 66.0439 247.148 66.8115 247.165 67.4795C247.189 68.1416 247.239 68.6484 247.315 69H245.293C245.369 68.6484 245.416 68.1416 245.434 67.4795C245.457 66.8115 245.469 66.0439 245.469 65.1768V57.6182H243.404C243.011 57.6182 242.642 57.6299 242.296 57.6533C241.95 57.6709 241.602 57.7178 241.25 57.7939V56.168H251.402ZM265.049 56.168V57.7939C264.697 57.7178 264.348 57.6709 264.003 57.6533C263.663 57.6299 263.294 57.6182 262.895 57.6182H260.786V65.1768C260.786 66.0439 260.795 66.8115 260.812 67.4795C260.836 68.1416 260.886 68.6484 260.962 69H258.94C259.016 68.6484 259.063 68.1416 259.081 67.4795C259.104 66.8115 259.116 66.0439 259.116 65.1768V57.6182H257.051C256.658 57.6182 256.289 57.6299 255.943 57.6533C255.597 57.6709 255.249 57.7178 254.897 57.7939V56.168H265.049ZM273.325 67.5498C273.759 67.5498 274.169 67.5498 274.556 67.5498C274.943 67.5439 275.3 67.5381 275.628 67.5322C275.956 67.5205 276.249 67.5059 276.507 67.4883C276.765 67.4707 276.982 67.4473 277.157 67.418V69H269.555C269.619 68.6484 269.657 68.1416 269.669 67.4795C269.681 66.8115 269.687 66.0439 269.687 65.1768V59.9912C269.687 59.124 269.681 58.3594 269.669 57.6973C269.657 57.0293 269.619 56.5195 269.555 56.168H271.357V67.5498H273.325ZM288.379 61.5732V62.9795H283.369V67.5498H285.689C286.562 67.5498 287.295 67.5439 287.886 67.5322C288.478 67.5205 288.95 67.4824 289.301 67.418V69H281.567C281.632 68.6484 281.67 68.1416 281.681 67.4795C281.693 66.8115 281.699 66.0439 281.699 65.1768V59.9912C281.699 59.124 281.693 58.3594 281.681 57.6973C281.67 57.0293 281.632 56.5195 281.567 56.168H289.038V57.6182H283.369V61.5732H288.379Z" fill="#054346"/>
</svg>
